<svg xmlns="http://www.w3.org/2000/svg" version="1.1" xmlns:xlink="http://www.w3.org/1999/xlink" xmlns:svgjs="http://svgjs.dev/svgjs" width="120" height="120"><svg width="120" height="120" viewBox="0 0 120 120" fill="none" xmlns="http://www.w3.org/2000/svg">
<rect width="120" height="120" rx="10" fill="#67DEC9"></rect>
<path d="M36.5366 84C33.2768 88.0753 31.9578 90.909 29.3171 97H90.6829C88.7648 92.3574 87.1379 89.5558 82.6787 84H60.9024H36.5366Z" fill="#AF75C4"></path>
<path d="M41.9512 43C48.5586 48.6747 52.5261 51.2728 60 55C67.3784 51.3317 71.2873 48.572 78.0488 43H41.9512Z" fill="#AF75C3"></path>
<path d="M60 60C42.208 69.8577 33.1855 74.8567 23.4232 99.9029C23.2789 100.273 23.2068 100.458 23.2382 100.605C23.2656 100.733 23.3428 100.846 23.4519 100.917C23.5771 101 23.772 101 24.1618 101H95.7592C96.1719 101 96.3783 101 96.5061 100.912C96.6173 100.836 96.6937 100.717 96.7163 100.584C96.7423 100.431 96.6551 100.242 96.4806 99.8637C86.7438 78.751 77.7339 69.8255 60 60ZM60 60C42.208 50.1423 33.1855 45.1433 23.4232 20.0971C23.2789 19.727 23.2068 19.5419 23.2382 19.3952C23.2656 19.2675 23.3428 19.1544 23.4519 19.0825C23.5771 19 23.772 19 24.1618 19H95.8382C96.228 19 96.4229 19 96.5481 19.0825C96.6572 19.1544 96.7344 19.2675 96.7618 19.3952C96.7932 19.5419 96.7211 19.727 96.5768 20.0971C86.8145 45.1433 77.792 50.1423 60 60Z" stroke="#621C7A" stroke-width="5"></path>
</svg><style>@media (prefers-color-scheme: light) { :root { filter: none; } }
@media (prefers-color-scheme: dark) { :root { filter: none; } }
</style></svg>